<?xml version="1.0" encoding="utf-8"?>
<!-- Generator: Adobe Illustrator 23.1.1, SVG Export Plug-In . SVG Version: 6.00 Build 0)  -->
<svg version="1.1" id="Layer_1" xmlns="http://www.w3.org/2000/svg" xmlns:xlink="http://www.w3.org/1999/xlink" x="0px" y="0px"
	 viewBox="0 0 450.4 450.4" style="enable-background:new 0 0 450.4 450.4;" xml:space="preserve">
<style type="text/css">
	.st0{fill:none;stroke:#000000;stroke-width:3;stroke-linecap:round;stroke-miterlimit:10;}
	.st1{fill:#FC3500;stroke:#000000;stroke-width:3;stroke-linecap:round;stroke-miterlimit:10;}
	.st2{fill:#EDDFDF;stroke:#000000;stroke-width:3;stroke-linecap:round;stroke-miterlimit:10;}
	.st3{fill:#D3C5C5;stroke:#000000;stroke-width:3;stroke-linecap:round;stroke-miterlimit:10;}
	.st4{fill:#EE2C00;stroke:#000000;stroke-width:3;stroke-miterlimit:10;}
	.st5{fill:none;stroke:#000000;stroke-width:8;stroke-linecap:round;stroke-miterlimit:10;}
	.st6{fill:#EDDFDF;stroke:#106BFC;stroke-width:3;stroke-miterlimit:10;}
	.st7{fill:#FFFFFF;stroke:#000000;stroke-width:3;stroke-miterlimit:10;}
	.st8{fill:#FFFDFD;stroke:#000000;stroke-width:3;stroke-miterlimit:10;}
</style>
<g>
	<path class="st0" d="M232.7,146.3c0,0,4.3-35.1-8-54.9c-10.9-17.5,3.1-40.3,3.1-40.3"/>
	<circle class="st1" cx="223.9" cy="55.9" r="9.6"/>
	<path class="st2" d="M194.8,127.3c0,0-23.6-12.7-35.1-5.8c-11.6,6.8-22.3,14.2-25.9,25.2c-3.7,11-12.9,58.7-17.9,71.3
		c-5,12.6-12.6,25-19.5,36c-6.8,11.1-11.1,20.5-7.9,23.7c3.2,3.2,17.9-5.8,18.9-2.6S90,323.5,94.2,327.1
		c4.2,3.7,27.9-19.5,31.1-16.3s-0.5,32.1,4.2,35.3c4.7,3.2,32.1-25.8,35.8-24.2c3.7,1.6,3,28.9,7.8,27.9c4.8-1.1,18-28.4,21.7-25.3
		c3.7,3.2,21,32.1,28.4,27.9c7.4-4.2,3.7-32.6,7.4-31.6c3.7,1.1,16.8,26.8,22.1,24.2c5.3-2.6-4.8-26.3,0-23.7
		c4.8,2.6,20.4,23.7,26.3,22.1c5.9-1.6,1.1-32.6,4.8-31.1c3.7,1.6,26.3,21.6,30.5,18.9c4.2-2.6-4.2-24.7,0-20
		c4.2,4.7,15.8,14.2,28.4,13.2c12.6-1.1-13.2-24.2-6.8-21.1c6.3,3.2,14.2,7.1,21.6,2.3s8.4-13.8,5.3-15.4
		c-3.2-1.6-17.4-16.3-21.6-22.6c-4.2-6.3-10.5-25.3-14.2-37.4c-3.7-12.1-8.4-51.5-12.1-60.5c-3.7-8.9-15.4-40.4-25.4-46.7
		s-28.3,4.3-33.1,3.2c-9.4-2.1-2-11.2-7.2-12.3c-5.3-1-16.4,14.7-20.1,15.2c-3.7,0.5,0.6-16.2-3.8-16.1c-5.5,0.1-18.9,11.6-22,13.7
		C200.1,129,194.8,127.3,194.8,127.3z"/>
	<ellipse class="st3" cx="223.9" cy="265.8" rx="22.9" ry="23.8"/>
	<ellipse class="st4" cx="223.9" cy="259.9" rx="19.5" ry="21.1"/>
	<path class="st3" d="M214.3,227.7c0,0-18.1-19.6-29.4-16.9c-11.3,2.8-24.7,21.4-31.4,31.5c-6.7,10.1-15.5,18-23.9,22
		c-7.8,3.8-11.4,9.8-10.6,13.3c0.8,3.5,7.6,7.3,14.2,5.9c7.1-1.6,24.7-12.8,25.4-12c0.7,0.8-14.9,9.4-16.1,13.5
		c-2,6.8,7,10.9,16,10.1c9.3-0.8,22.8-13.2,21.2-10.5c-1.6,2.7-11.5,17.7-3.2,20.6c7.6,2.6,13.1,0.5,18.8-2.6
		c6.7-3.5,9.8-10.2,18.8-26.3c9-16.1,10.5-20.8,11.4-27.4c0.8-6.6-1.7-17.3-1.7-17.3L214.3,227.7z"/>
	<path class="st3" d="M235.5,227.7c0,0,18.1-19.6,29.4-16.9c11.3,2.8,24.7,21.4,31.4,31.5c6.7,10.1,15.5,18,23.9,22
		c7.8,3.8,11.4,9.8,10.6,13.3c-0.8,3.5-7.6,7.3-14.2,5.9c-7.1-1.6-24.6-12.8-25.4-12c-0.7,0.8,14.9,9.4,16.1,13.5
		c2,6.8-7,10.9-16,10.1c-9.3-0.8-22.8-13.2-21.2-10.5c1.6,2.7,11.5,17.7,3.2,20.6c-7.6,2.6-13.1,0.5-18.8-2.6
		c-6.7-3.5-9.8-10.2-18.8-26.3c-9-16.1-9-20.8-9.8-27.4c-0.8-6.6,0.2-17.3,0.2-17.3L235.5,227.7z"/>
	<path class="st2" d="M169.4,123c-0.8-5.2-2.7-11.2-7.1-15.2c-9.2-8.2-25.7-17-42.1-15.1c-16,1.8-25.6,8.5-34.8,23.7
		s-19.2,35.5-32.5,49.9s-26.8,24-28.6,29.4c-3.4,10.1,6.9,17,14.1,14.4c5.9-2.1,11.3-8.4,9.5-4.3c-1.8,4.1-8.2,15.4-3.2,20.8
		c5.3,5.7,16.1-1.2,21.2-5.7s-11.6,19.6-1.3,24.6c8.3,4,12.9,0.1,24.6-6.2c6.1-3.4,18.7-12.9,26.2-18.6c5.7-4.3,23-56,23-56"/>
	<path class="st2" d="M273.9,126.9c0.8-5.2,2.7-11.2,7.1-15.2c9.2-8.2,25.7-17,42.1-15.1c16,1.8,25.6,8.5,34.8,23.7
		c9.2,15.2,19.2,35.5,32.5,49.9c13.3,14.3,26.8,24,28.6,29.4c3.4,10.1-6.9,17-14.1,14.4c-5.9-2.1-11.3-8.4-9.5-4.3
		s8.2,15.4,3.2,20.8c-5.3,5.7-16.1-1.2-21.2-5.7s11.6,19.6,1.3,24.6c-8.3,4-12.9,0.1-24.6-6.2c-6.1-3.4-18.7-12.9-26.2-18.6
		c-5.7-4.3-23-56-23-56"/>
	<path class="st5" d="M163.7,183.5c0,0,9.5-16,22-14.9c12.5,1.1,16,10.6,16,10.6"/>
	<path class="st5" d="M286.2,183.5c0,0-9.5-16-22-14.9c-12.5,1.1-16,10.6-16,10.6"/>
	<ellipse cx="227" cy="230.9" rx="24.2" ry="12.3"/>
	<circle cx="172.4" cy="245.6" r="3.1"/>
	<circle cx="185.1" cy="233" r="3.1"/>
	<circle cx="192.6" cy="247.2" r="3.1"/>
	<circle cx="253.9" cy="255.3" r="3.1"/>
	<circle cx="271.5" cy="248.7" r="3.1"/>
	<circle cx="260.3" cy="236.1" r="3.1"/>
	<g>
		<circle class="st7" cx="185.7" cy="202.6" r="18.7"/>
		<circle cx="185.7" cy="202.6" r="13.3"/>
		<path class="st8" d="M204.5,201.8c-0.3-7.6-5.3-14.6-12.9-17c-1.4,1.2-2.4,2.9-3,4.8c-1.8,5.7,1.4,11.7,7.1,13.4
			C198.7,204,201.9,203.4,204.5,201.8z"/>
		<circle class="st8" cx="176.6" cy="212.9" r="4.8"/>
	</g>
	<g>
		<circle class="st7" cx="262.2" cy="202.6" r="18.7"/>
		<circle cx="262.2" cy="202.6" r="13.3"/>
		<path class="st8" d="M280.9,201.8c-0.3-7.6-5.3-14.6-12.9-17c-1.4,1.2-2.4,2.9-3,4.8c-1.8,5.7,1.4,11.7,7.1,13.4
			C275.1,204,278.3,203.4,280.9,201.8z"/>
		<circle class="st8" cx="253" cy="212.9" r="4.8"/>
	</g>
</g>
</svg>
