<?xml version="1.0" encoding="utf-8"?>
<!-- Generator: Adobe Illustrator 23.1.1, SVG Export Plug-In . SVG Version: 6.00 Build 0)  -->
<svg version="1.1" id="Layer_1" xmlns="http://www.w3.org/2000/svg" xmlns:xlink="http://www.w3.org/1999/xlink" x="0px" y="0px"
	 viewBox="0 0 450.4 450.4" style="enable-background:new 0 0 450.4 450.4;" xml:space="preserve">
<style type="text/css">
	.st0{fill:none;stroke:#000000;stroke-width:3;stroke-linecap:round;stroke-miterlimit:10;}
	.st1{fill:#FC3500;stroke:#000000;stroke-width:3;stroke-linecap:round;stroke-miterlimit:10;}
	.st2{fill:#EDDFDF;stroke:#000000;stroke-width:3;stroke-linecap:round;stroke-miterlimit:10;}
	.st3{fill:none;stroke:#000000;stroke-width:8;stroke-linecap:round;stroke-miterlimit:10;}
	.st4{fill:#EDDFDF;stroke:#106BFC;stroke-width:3;stroke-miterlimit:10;}
	.st5{fill:#FFFFFF;}
	.st6{fill:#D3C5C5;stroke:#000000;stroke-width:3;stroke-linecap:round;stroke-miterlimit:10;}
</style>
<path class="st0" d="M236.9,165.3c0,0,4.3-35.1-8-54.9C218,92.9,232,70.2,232,70.2"/>
<circle class="st1" cx="228.2" cy="74.9" r="9.6"/>
<path class="st2" d="M196,152.3c0,0-23.6-12.7-35.1-5.8c-11.6,6.8-22.3,14.2-25.9,25.2c-3.7,11-12.9,58.7-17.9,71.3
	c-5,12.6-12.6,25-19.5,36s-11.1,20.5-7.9,23.7c3.2,3.2,17.9-5.8,18.9-2.6s-17.4,48.4-13.2,52.1c4.2,3.7,27.9-19.5,31.1-16.3
	c3.2,3.2-0.5,32.1,4.2,35.3s32.1-25.8,35.8-24.2c3.7,1.6,3,28.9,7.8,27.9s18-28.4,21.7-25.3c3.7,3.2,21,32.1,28.4,27.9
	c7.4-4.2,3.7-32.6,7.4-31.6c3.7,1.1,16.8,26.8,22.1,24.2c5.3-2.6-4.8-26.3,0-23.7c4.8,2.6,20.4,23.7,26.3,22.1
	c5.9-1.6,1.1-32.6,4.8-31.1c3.7,1.6,26.3,21.6,30.5,18.9c4.2-2.6-4.2-24.7,0-20c4.2,4.7,15.8,14.2,28.4,13.2
	c12.6-1.1-13.2-24.2-6.8-21.1s14.2,7.1,21.6,2.3s8.4-13.8,5.3-15.4c-3.2-1.6-17.4-16.3-21.6-22.6c-4.2-6.3-10.5-25.3-14.2-37.4
	s-8.4-51.5-12.1-60.5c-3.7-8.9-15.4-40.4-25.4-46.7c-10-6.3-28.3,4.3-33.1,3.2c-9.4-2.1-2-11.2-7.2-12.3c-5.3-1-16.4,14.7-20.1,15.2
	s0.6-16.2-3.8-16.1c-5.5,0.1-18.9,11.6-22,13.7C201.3,154,196,152.3,196,152.3z"/>
<path class="st2" d="M169.4,150.2c-0.8-5.2-2.7-11.2-7.1-15.2c-9.2-8.2-25.7-17-42.1-15.1c-16,1.8-25.6,8.5-34.8,23.7
	c-9.2,15.2-19.2,35.5-32.5,49.9s-26.8,24-28.6,29.4c-3.4,10.1,6.9,17,14.1,14.4c5.9-2.1,11.3-8.4,9.5-4.3
	c-1.8,4.1-8.2,15.4-3.2,20.8c5.3,5.7,16.1-1.2,21.2-5.7s-11.6,19.6-1.3,24.6c8.3,4,12.9,0.1,24.6-6.2c6.1-3.4,18.7-12.9,26.2-18.6
	c5.7-4.3,23-56,23-56"/>
<path class="st2" d="M273.9,154c0.8-5.2,2.7-11.2,7.1-15.2c9.2-8.2,25.7-17,42.1-15.1c16,1.8,25.6,8.5,34.8,23.7
	c9.2,15.2,19.2,35.5,32.5,49.9c13.3,14.3,26.8,24,28.6,29.4c3.4,10.1-6.9,17-14.1,14.4c-5.9-2.1-11.3-8.4-9.5-4.3s8.2,15.4,3.2,20.8
	c-5.3,5.7-16.1-1.2-21.2-5.7c-5.1-4.5,11.6,19.6,1.3,24.6c-8.3,4-12.9,0.1-24.6-6.2c-6.1-3.4-18.7-12.9-26.2-18.6
	c-5.7-4.3-23-56-23-56"/>
<path class="st3" d="M156.7,214.6c0,0,9.5-16,22-14.9s16,10.6,16,10.6"/>
<path class="st3" d="M288.2,214.6c0,0-9.5-16-22-14.9s-16,10.6-16,10.6"/>
<g>
	<circle cx="184" cy="232.7" r="15.6"/>
	<circle class="st5" cx="184" cy="232.9" r="5.7"/>
</g>
<g>
	<circle cx="262.3" cy="230.1" r="15.6"/>
	<circle class="st5" cx="262.3" cy="230.3" r="5.7"/>
</g>
<ellipse class="st6" cx="225.9" cy="284.9" rx="22.9" ry="23.8"/>
<path class="st6" d="M216.3,254.8c0,0-18.1-19.6-29.4-16.9c-11.3,2.8-24.7,21.4-31.4,31.5s-15.5,18-23.9,22
	c-7.8,3.8-11.4,9.8-10.6,13.3c0.8,3.5,7.6,7.3,14.2,5.9c7.1-1.6,24.7-12.8,25.4-12c0.7,0.8-14.9,9.4-16.1,13.5
	c-2,6.8,7,10.9,16,10.1c9.3-0.8,22.8-13.2,21.2-10.5s-11.5,17.7-3.2,20.6c7.6,2.6,13.1,0.5,18.8-2.6c6.7-3.5,9.8-10.2,18.8-26.3
	c9-16.1,10.5-20.8,11.4-27.4c0.8-6.6-1.7-17.3-1.7-17.3L216.3,254.8z"/>
<path class="st6" d="M237.5,254.8c0,0,18.1-19.6,29.4-16.9c11.3,2.8,24.7,21.4,31.4,31.5c6.7,10.1,15.5,18,23.9,22
	c7.8,3.8,11.4,9.8,10.6,13.3c-0.8,3.5-7.6,7.3-14.2,5.9c-7.1-1.6-24.6-12.8-25.4-12c-0.7,0.8,14.9,9.4,16.1,13.5
	c2,6.8-7,10.9-16,10.1c-9.3-0.8-22.8-13.2-21.2-10.5c1.6,2.7,11.5,17.7,3.2,20.6c-7.6,2.6-13.1,0.5-18.8-2.6
	c-6.7-3.5-9.8-10.2-18.8-26.3c-9-16.1-9-20.8-9.8-27.4c-0.8-6.6,0.2-17.3,0.2-17.3L237.5,254.8z"/>
<ellipse cx="227" cy="258" rx="24.2" ry="12.3"/>
<circle cx="174.4" cy="272.7" r="3.1"/>
<circle cx="187.1" cy="260.1" r="3.1"/>
<circle cx="194.6" cy="274.3" r="3.1"/>
<circle cx="255.9" cy="282.4" r="3.1"/>
<circle cx="273.5" cy="275.8" r="3.1"/>
<circle cx="262.3" cy="263.2" r="3.1"/>
</svg>
